<svg xmlns:dc="http://purl.org/dc/elements/1.1/" xmlns:cc="http://creativecommons.org/ns#" xmlns:rdf="http://www.w3.org/1999/02/22-rdf-syntax-ns#" xmlns:svg="http://www.w3.org/2000/svg" xmlns="http://www.w3.org/2000/svg" xmlns:sodipodi="http://sodipodi.sourceforge.net/DTD/sodipodi-0.dtd" xmlns:inkscape="http://www.inkscape.org/namespaces/inkscape" version="1.1" x="0px" y="0px" viewBox="0 0 100 125"><g transform="translate(0,-952.36218)"><path  d="m 55.500447,958.10284 c 0.777508,0.0826 1.478906,0.66395 1.704189,1.41272 0.225319,0.74874 -0.03901,1.62064 -0.641693,2.11854 -1.685692,1.41045 -3.454618,3.0003 -4.437495,5.0625 -0.898902,1.88593 -1.280516,4.22288 -0.125008,7.75 7.270901,0.99591 13.350791,6.43833 17.656192,13.78123 4.688008,7.99502 7.427905,18.37777 7.531299,28.75007 0.08302,10.1761 -3.020102,17.7022 -8.093693,22.5625 -10.004208,9.7444 -27.540495,9.1419 -38.218782,0 -5.073023,-4.8596 -8.165622,-12.3867 -8.062511,-22.5625 0.08298,-10.3735 2.812712,-20.75625 7.500011,-28.75007 2.128075,-3.62938 4.697291,-6.79206 7.624984,-9.18748 -0.345012,-0.088 -0.686303,-0.19959 -1.031315,-0.31252 -4.113389,-1.34677 -8.037885,-4.82524 -9.374988,-10.81251 -0.210011,-0.9327 0.354614,-1.97723 1.250008,-2.31247 2.158299,-0.80046 4.227484,-1.15355 6.156283,-1.15625 3.21463,-0.005 6.034606,0.97413 8.250024,2.46873 1.763893,1.19002 3.160204,2.65695 4.156299,4.25002 -0.11941,-2.38082 0.32889,-4.45195 1.156181,-6.1875 1.434897,-3.0105 3.788716,-4.97441 5.499992,-6.40626 0.355323,-0.29853 0.817122,-0.46747 1.281224,-0.46875 0.07299,-0.004 0.145878,-0.004 0.218799,0 z m -20.531196,10.31252 c -0.942094,0.007 -1.957996,0.14024 -3.031299,0.40624 1.272295,3.53519 3.619594,5.27396 6.218681,6.12499 2.299996,0.75299 4.866803,0.61094 6.624992,0.12501 -0.550488,-1.5721 -1.853469,-3.52205 -3.812386,-4.84377 -1.606287,-1.08365 -3.595783,-1.82899 -5.999988,-1.81247 z m -1.18761,21.84369 c -4.264016,7.2725 -6.891484,17.07105 -6.968693,26.75005 -0.09602,9.3628 2.62428,15.613 6.812504,19.625 9.244594,7.3727 23.999173,8.4438 32.71879,0 4.187197,-4.0113 6.919406,-10.2629 6.843685,-19.625 -0.09698,-9.6802 -2.736389,-19.47865 -6.99998,-26.75005 -8.833322,-15.41493 -22.727019,-15.35204 -32.406306,0 z" style="text-indent:0;text-transform:none;direction:ltr;block-progression:tb;baseline-shift:baseline;color:#000000;enable-background:accumulate;" fill="#fff" fill-opacity="1" fill-rule="evenodd" stroke="none" marker="none" visibility="visible" display="inline" overflow="visible"/><path d="m 48.230857,1005.5774 a 2.0001999,2.0001999 0 0 1 1.594488,3.1591 c -1.113378,1.6152 -1.565681,3.0051 -1.565681,4.2575 0,1.2524 0.426898,2.4698 1.494815,3.8379 a 2.0001999,2.0001999 0 1 1 -3.152445,2.4614 c -1.489854,-1.9085 -2.341878,-4.0679 -2.341878,-6.2993 0,-2.2314 0.826618,-4.433 2.271012,-6.5286 a 2.0001999,2.0001999 0 0 1 1.699689,-0.888 z" style="text-indent:0;text-transform:none;direction:ltr;block-progression:tb;baseline-shift:baseline;color:#000000;enable-background:accumulate;" fill="#fff" fill-opacity="1" fill-rule="evenodd" stroke="none" marker="none" visibility="visible" display="inline" overflow="visible"/><path d="m 50.73555,996.04805 c 3.850299,0 7.281744,2.0784 9.64109,5.18765 2.359382,3.1093 3.74928,7.2782 3.74928,11.8524 0,4.5742 -1.389189,8.7516 -3.747048,11.8701 -2.357858,3.1185 -5.788842,5.2098 -9.643322,5.2098 -3.854516,0 -7.278342,-2.0946 -9.625642,-5.2143 -2.347263,-3.1196 -3.723767,-7.2946 -3.723767,-11.8656 0,-4.571 1.377212,-8.7387 3.726,-11.849 2.348787,-3.11045 5.773074,-5.19105 9.623409,-5.19105 z m 0,3.99955 c -2.42426,0 -4.67348,1.2745 -6.431102,3.602 -1.757622,2.3275 -2.918799,5.68 -2.918799,9.4385 0,3.7585 1.160751,7.1227 2.919897,9.4606 1.759146,2.338 4.009961,3.6198 6.430004,3.6198 2.420008,0 4.684677,-1.284 6.453248,-3.6231 1.768535,-2.339 2.937614,-5.702 2.937614,-9.4573 0,-3.7553 -1.16837,-7.1065 -2.935417,-9.4351 -1.767048,-2.3287 -4.031221,-3.6054 -6.455445,-3.6054 z" style="text-indent:0;text-transform:none;direction:ltr;block-progression:tb;baseline-shift:baseline;color:#000000;enable-background:accumulate;" fill="#fff" fill-opacity="1" fill-rule="evenodd" stroke="none" marker="none" visibility="visible" display="inline" overflow="visible"/></g></svg>