

<svg xmlns="http://www.w3.org/2000/svg" data-name="Слой 1" viewBox="0 0 128 160" x="0px" y="0px"><title>Broccoli, cabbage, cauliflower, cole</title><path fill="white"
 d="M101.43,122.2A25.33,25.33,0,0,1,78.56,86a38.76,38.76,0,0,1-32.11-24.7,32.31,32.31,0,0,1-2.8-1.63,27.45,27.45,0,1,1-3-52.24A32.55,32.55,0,0,1,83.43,8.67a38.75,38.75,0,0,1,38,38.48,27.47,27.47,0,0,1-.85,33.09,25.33,25.33,0,0,1-19.14,42ZM43.88,55.38a2,2,0,0,1,1.15.36A28.29,28.29,0,0,0,48.92,58a2,2,0,0,1,1,1.13,34.75,34.75,0,0,0,32,23,2,2,0,0,1,1.63,3.09,21.34,21.34,0,1,0,33-3.45l-.08-.08a2,2,0,0,1-.06-2.76A23.47,23.47,0,0,0,117.82,49a2,2,0,0,1-.4-1.23A34.75,34.75,0,0,0,82.66,12.67h0a2,2,0,0,1-1.4-.57,28.52,28.52,0,0,0-38.75-1,2,2,0,0,1-1.9.42,23.45,23.45,0,1,0,2.52,44A2,2,0,0,1,43.88,55.38Zm74,24.93h0Z"/><path fill="white" d="M21.11,128a2,2,0,0,1-.66-.11A36.42,36.42,0,0,1,8,119.78a24.12,24.12,0,0,1-6.72-13.44,2,2,0,0,1,.58-1.62L19.94,86.61A24.38,24.38,0,0,0,26.8,69.16a85.75,85.75,0,0,1,1-10.33,2,2,0,0,1,2.3-1.7,23.48,23.48,0,0,0,9.28-.36,2,2,0,0,1,2.29,2.78,67.33,67.33,0,0,0-3.5,8.67c-.36,1.27-.18,1.83-.11,1.9a1.55,1.55,0,0,0,1-.16c1.38-.56,3.3-2.41,4.17-5.77.43-1.68.9-3.61,1.38-5.62a2,2,0,0,1,2.92-1.29l.16.09c.4.22.81.45,1.22.65a2,2,0,0,1,1,1.13,34.69,34.69,0,0,0,2.79,5.92A2,2,0,0,1,53,66.24c-.6,7.9.83,8.88.84,8.88,1,.38,2.25-.62,3.17-1.52a2,2,0,0,1,2.72-.07,34.38,34.38,0,0,0,11.76,6.8,2,2,0,0,1-.15,3.83,24.3,24.3,0,0,1-5.8.89c-2.21,0-2.7.58-2.7.59h0a2.44,2.44,0,0,0,.48.68,5.63,5.63,0,0,0,4,1.43c1.41,0,4.74-.53,12.61-3.07a2,2,0,0,1,2.41,2.79,21.35,21.35,0,0,0-1.41,15.13,2,2,0,0,1-2.21,2.52,161.08,161.08,0,0,0-18.84-1.94c-7.56,0-17.46,6.38-21.77,10.68s-15.22,13.3-15.68,13.68A2,2,0,0,1,21.11,128ZM5.38,106.83A20.6,20.6,0,0,0,10.79,117a33.3,33.3,0,0,0,10,6.75c2.75-2.28,11-9.17,14.48-12.67,4.92-4.92,15.81-11.86,24.6-11.86a141.31,141.31,0,0,1,16.57,1.58,25.32,25.32,0,0,1,.74-11c-4.64,1.36-7.88,2-9.86,2-5,0-8.42-3.19-8.42-6.17a4.06,4.06,0,0,1,2.06-3.48,7.23,7.23,0,0,1,2.72-.92,38.39,38.39,0,0,1-5.21-3.53c-2.56,1.89-4.66,1.73-6,1.19-2.85-1.12-3.91-4.92-3.41-12.29q-.8-1.4-1.47-2.84l-.37,1.47c-1.38,5.37-4.82,8.08-7.35,8.76a4.55,4.55,0,0,1-4.56-1c-.74-.75-1.84-2.5-.89-5.81a51.64,51.64,0,0,1,2.18-5.82,27.34,27.34,0,0,1-5,0,69.59,69.59,0,0,0-.71,7.83,28.34,28.34,0,0,1-8,20.28Z"/></svg>