<svg xmlns="http://www.w3.org/2000/svg" data-name="Слой 1" viewBox="0 0 128 160" x="0px" y="0px"><title>cabbage, cole</title><path fill="white" d="M27.48,122.65a3.12,3.12,0,0,1-2.05-.76,104.09,104.09,0,0,1-12.76-11.15C5,103.08,2.06,98.82,1.48,97.94a3.14,3.14,0,0,1,.18-4.23l4.47-4.1a2,2,0,0,1,2.7,2.95L5,96a94.08,94.08,0,0,0,10.46,11.87A105.53,105.53,0,0,0,27.43,118.4l3.15-2.84a2,2,0,1,1,2.68,3l-3.61,3.25A3.12,3.12,0,0,1,27.48,122.65Z"/><path fill="white" d="M111.86,31.14a2,2,0,0,1-1.58-.77c-1.47-1.9-7.89-8.67-9.15-9.72a2,2,0,1,1,2.57-3.06,141.25,141.25,0,0,1,9.73,10.33,2,2,0,0,1-1.58,3.23Z"/><path fill="white" d="M101.87,28.78l-.3,0a2,2,0,0,1-1.68-2.27c1.25-8.35,0-12.05-1.11-12.51C67.57,1.56,54.35,1,39.84,11.35a2,2,0,0,1-2.33-3.25c15.89-11.36,30-10.87,62.74,2.16,4.77,1.9,4.58,10.19,3.59,16.82A2,2,0,0,1,101.87,28.78Z"/><path fill="white" d="M111.4,106.13a2,2,0,0,1-1.56-3.25c18.11-22.57,16.93-52,6.62-68.2C111.59,27,82.07,25.37,57.62,38a2,2,0,0,1-1.83-3.56c25.32-13,57.55-12.1,64.05-1.87,11.05,17.39,12.4,48.83-6.88,72.85A2,2,0,0,1,111.4,106.13Z"/><path fill="white" d="M2.61,73a2,2,0,0,1-2-1.75C-1.86,51.1,5,32.69,19.47,20.67A26.87,26.87,0,0,0,27.35,9.82c1-2.29,1.9-4.27,4-4.75,2.72-.61,5.9,1.61,14.06,8.61,6.41,5.5,14.44,23.54,19.82,38.6a2,2,0,0,1-3.77,1.34c-6.44-18-13.93-32.86-18.65-36.91C40.14,14.41,33.85,9,32.3,9A11.52,11.52,0,0,0,31,11.45a30.79,30.79,0,0,1-9,12.29C8.63,34.87,2.28,52,4.6,70.71a2,2,0,0,1-1.74,2.23Z"/><path fill="white" d="M63.89,128a63,63,0,0,1-44.56-18.37C5.16,95.47-1.24,81.13,1.3,69.28c2.13-9.94,10.48-17.94,24.13-23.13,20.44-7.77,50,5.89,73.65,34,12.08,14.38,16.68,24.75,14.05,31.71-2.7,7.15-12.09,8.57-18.3,9.5a25.19,25.19,0,0,0-4.89,1A62.48,62.48,0,0,1,63.89,128Zm-26-80a31,31,0,0,0-11.06,1.93C14.35,54.63,7.07,61.44,5.21,70.11,3,80.6,9,93.63,22.16,106.81A59.08,59.08,0,0,0,88.27,118.7a24.9,24.9,0,0,1,6-1.32c5.61-.84,13.28-2,15.16-7,1.4-3.72.22-11.54-13.37-27.72C77.59,60.77,55.62,48,37.92,48Z"/></svg>