<svg xmlns="http://www.w3.org/2000/svg" xmlns:xlink="http://www.w3.org/1999/xlink" xmlns:xodm="http://www.corel.com/coreldraw/odm/2003" xml:space="preserve" version="1.1" style="shape-rendering:geometricPrecision;text-rendering:geometricPrecision;image-rendering:optimizeQuality;" viewBox="0 0 8.4666 10.58325" x="0px" y="0px" fill-rule="evenodd" clip-rule="evenodd"><defs><style type="text/css">
   
    .fil0 {fill:white;fill-rule:nonzero}
   
  </style></defs><g><path class="fil0" d="M2.6352 4.2134c0.0013,0.0073 0.002,0.0148 0.002,0.0224 -0.0001,0.1827 0.0236,0.3678 0.0724,0.5498 0.0471,0.1757 0.1177,0.3484 0.2128,0.5129 0.0667,0.1155 0.1386,0.2285 0.2148,0.3381 0.6357,0.9144 1.5283,1.5194 2.3705,1.8326 0.8288,0.3082 1.6,0.3347 2.0156,0.0948l0.0605 -0.0389c0.1863,-0.1245 0.2299,-0.2246 0.1829,-0.3199 -0.067,-0.1359 -0.2661,-0.2927 -0.5207,-0.4807 -0.028,-0.0207 -0.0449,-0.0509 -0.0497,-0.0829 -0.0816,-0.5329 -0.1097,-0.9859 -0.135,-1.3952 -0.0461,-0.7471 -0.0832,-1.3457 -0.4348,-2.0375 -0.3049,-0.5245 -0.7789,-0.8739 -1.3029,-1.0204 -0.5282,-0.1475 -1.1079,-0.0898 -1.6169,0.2018l-0.0077 0.0046c-0.0342,0.5649 -0.3251,1.0785 -0.7471,1.5202 -0.0988,0.1034 -0.205,0.203 -0.3167,0.2983zm0.8134 -1.9217c-0.3702,0.214 -0.7149,0.4683 -1.0281,0.7574 -0.3609,0.3331 -0.6799,0.7128 -0.9472,1.1304 -0.0378,0.0589 -0.1163,0.076 -0.1752,0.0382 -0.0589,-0.0378 -0.076,-0.1163 -0.0382,-0.1752 0.2788,-0.4355 0.6118,-0.8319 0.989,-1.18 0.291,-0.2686 0.6091,-0.5087 0.9497,-0.7165 -0.1211,-0.0111 -0.2406,-0.0105 -0.3576,0.0008 -0.4792,0.0464 -0.9227,0.2739 -1.2817,0.6203 -0.3624,0.3497 -0.6386,0.8204 -0.7797,1.3494 -0.079,0.2961 -0.1157,0.6106 -0.1017,0.932 0.7187,-0.2655 1.5299,-0.7215 2.0904,-1.308 0.4048,-0.4236 0.6767,-0.915 0.6803,-1.4488zm-0.0636 -0.377c-0.0466,-0.1989 -0.0592,-0.3749 -0.0472,-0.5424 0.0197,-0.2742 0.1048,-0.5179 0.2155,-0.8001 0.0254,-0.0652 0.099,-0.0974 0.1642,-0.072 0.0652,0.0254 0.0974,0.099 0.072,0.1642 -0.1026,0.2616 -0.1815,0.486 -0.1987,0.7257 -0.0136,0.1907 0.0108,0.3972 0.0921,0.6489l0.0002 0.0005 0.0006 0.0017 0.0007 0.0022 0.0007 0.0022 0.0007 0.0023 0.0007 0.0022 0.0185 0.0545c0.5388,-0.2683 1.1374,-0.3133 1.686,-0.1601 0.5857,0.1637 1.1149,0.553 1.4541,1.1363l0.0075 0.0129c0.3752,0.7382 0.4137,1.3607 0.4617,2.1379 0.024,0.3883 0.0506,0.8166 0.1249,1.3209 0.2626,0.1954 0.468,0.3649 0.5547,0.5405 0.1102,0.2232 0.0516,0.4285 -0.2691,0.6427l-0.0034 0.0024c-0.0226,0.0157 -0.0468,0.0311 -0.0721,0.0456 -0.478,0.2752 -1.3317,0.2568 -2.23,-0.0773 -0.885,-0.3291 -1.8228,-0.9647 -2.4905,-1.925 -0.0782,-0.1125 -0.1537,-0.2314 -0.2256,-0.3559 -0.1068,-0.1848 -0.186,-0.3782 -0.2386,-0.5745 -0.039,-0.1454 -0.0635,-0.2934 -0.0742,-0.4418 -0.5566,0.418 -1.2101,0.7395 -1.7869,0.9343 -0.0663,0.0222 -0.1381,-0.0136 -0.1603,-0.0799 -0.0037,-0.0111 -0.0058,-0.0225 -0.0064,-0.0337 -0.0388,-0.4069 -0.0014,-0.8059 0.0978,-1.1778 0.1532,-0.5744 0.4539,-1.0863 0.8491,-1.4676 0.3985,-0.3846 0.8943,-0.6374 1.4335,-0.6897 0.1853,-0.0179 0.3752,-0.0122 0.5678,0.0199z"/></g></svg>