<svg xmlns="http://www.w3.org/2000/svg" data-name="Ğ¡Ğ»Ğ¾Ğ¹ 1" viewBox="0 0 128 160" x="0px" y="0px"><title>papaya</title><path  fill="white" d="M127.83,25.56c-.53-3.47-5.77-11.06-7.67-13a2,2,0,1,0-2.83,2.83c1.59,1.59,6.21,8.53,6.54,10.72.63,4.13-1.18,7.3-3.68,11.7-3.61,6.35-8.56,15-8.56,31.61,0,12.69-12.51,33.1-32.71,44-18.84,10.13-41.08,11-48.81,9.16l-3.33-.76c-4.67-1-5.48-1.26-6.79-2.57a4.75,4.75,0,0,1-1.36-2.34,4.72,4.72,0,0,0-1.13-2.14,3.64,3.64,0,0,0-2-1c-.52-.11-1.24-.26-2.86-1.87C10.14,109.43,4,95.57,4,83.93c0-21.28,7.22-38,21.45-49.79,15.79-13,34.89-16.62,45.15-18.54,2.56-.48,4.58-.86,6-1.27A97.74,97.74,0,0,0,88.12,9.63a65.47,65.47,0,0,1,9.64-3.87l1-.24c3.92-.91,4.4-1,5.55-.66,2.54.74,5.34,4.86,5.4,6a2,2,0,1,0,4,0c0-3.07-4.28-8.69-8.28-9.86-2.2-.64-3.45-.36-7.58.6l-1,.24C94.23,2.47,90.46,4.18,86.47,6a95.34,95.34,0,0,1-11,4.5c-1.2.36-3.13.72-5.58,1.18-10.62,2-30.37,5.69-47,19.38C7.92,43.43,0,61.71,0,83.93c0,12.35,6.36,27.37,9.81,30.82,2.27,2.27,3.7,2.72,4.87,3h0l.12.37a8.62,8.62,0,0,0,2.36,4c2.17,2.17,4,2.57,8.75,3.65l3.3.75a45.45,45.45,0,0,0,9.61.83c10.7,0,27-2.28,42-10.37,19.2-10.32,34.82-31.62,34.82-47.49,0-15.52,4.45-23.34,8-29.63C126.35,35.13,128.66,31.07,127.83,25.56Z"/><path fill="white" d="M95.28,55.33a6.8,6.8,0,0,0-9.08-.47c-.1-.24-.21-.48-.33-.71a8.57,8.57,0,0,0,5.44-14.6,2,2,0,0,0-2.83,2.83,4.57,4.57,0,1,1-5.08-1,2,2,0,0,0-1.61-3.66,8.54,8.54,0,0,0-2.61,1.79,8.67,8.67,0,0,0-1,1.21,8.61,8.61,0,0,0-15.06,1.17c-.12-.14-.24-.28-.37-.41A7.54,7.54,0,0,0,50.18,49,8.61,8.61,0,0,0,41.28,55,6.7,6.7,0,0,0,32,64.52a7.45,7.45,0,0,0-1.5-.15,7.34,7.34,0,0,0-5.23,2.17,7.47,7.47,0,0,0-1,1.29A2,2,0,0,0,27.63,70a3.39,3.39,0,0,1,5.27-.6,3.39,3.39,0,0,1-4.79,4.79A2,2,0,0,0,25.27,77a7.34,7.34,0,0,0,3.2,1.88A8.57,8.57,0,0,0,29.55,91.3h-.27A7.33,7.33,0,0,0,22,99.64a2,2,0,1,0,4-.55,3.31,3.31,0,0,1,.94-2.82,3.41,3.41,0,0,1,4.72,0,3.33,3.33,0,0,1-3,5.64,2,2,0,0,0-.73,3.93,7.32,7.32,0,0,0,8-4.15c.13.14.25.29.39.43a8.63,8.63,0,0,0,12.19,0h0a8.58,8.58,0,0,0,1.3-1.69,7.73,7.73,0,0,0,11.81,1.06h0A7.74,7.74,0,0,0,62.72,92a8.88,8.88,0,0,0,10.91-5.22,6.43,6.43,0,0,0,8.39-.6h0a6.42,6.42,0,0,0,.73-8.23,7.7,7.7,0,0,0,1.73.21,7.58,7.58,0,0,0,4.19-1.25,2,2,0,0,0-2.21-3.34,3.63,3.63,0,0,1-4.56-5.6,3.71,3.71,0,0,1,5.13,0A3.62,3.62,0,0,1,88,69.57a2,2,0,0,0,3.87-1,7.59,7.59,0,0,0-.67-1.67,6.79,6.79,0,0,0,4.1-11.56ZM47.73,80.21a4.62,4.62,0,1,1,0,6.53A4.6,4.6,0,0,1,47.73,80.21Zm5.88-6.59a4.62,4.62,0,1,1,6.53,0h0A4.62,4.62,0,0,1,53.62,73.62ZM67,61a4.62,4.62,0,1,1,0-6.53A4.59,4.59,0,0,1,67,61Zm.71,6.49a4.89,4.89,0,1,1,0,6.91A4.87,4.87,0,0,1,67.7,67.48Zm-21.2,1.4A4.89,4.89,0,1,1,43,67.45,4.9,4.9,0,0,1,46.49,68.88Zm28.05-7.12a4.89,4.89,0,1,1,6.92,0A4.9,4.9,0,0,1,74.55,61.76Zm-31.27,1.7h0ZM34.91,79.95a4.61,4.61,0,1,1-3.26,1.35A4.6,4.6,0,0,1,34.91,79.95ZM43.16,87c.06.14.12.28.2.42l-.33,0C43.07,87.3,43.12,87.17,43.16,87ZM58,88.46l.06.08-.1,0ZM67.7,42.2a4.62,4.62,0,1,1-1.35,3.26A4.6,4.6,0,0,1,67.7,42.2ZM54.91,44.34a3.54,3.54,0,1,1,0,5A3.53,3.53,0,0,1,54.91,44.34Zm-8.64,9.94a4.62,4.62,0,1,1,6.53,6.53h0a4.62,4.62,0,1,1-6.53-6.53ZM35.38,58.51a2.71,2.71,0,0,1,3.83,3.83,2.77,2.77,0,0,1-3.83,0A2.71,2.71,0,0,1,35.38,58.51ZM34.3,93.14l0,.11-.13-.12Zm11.38,6.14a4.61,4.61,0,1,1,0-6.53A4.62,4.62,0,0,1,45.68,99.28Zm13.11-.63a3.73,3.73,0,1,1,0-5.27A3.74,3.74,0,0,1,58.79,98.65Zm10-11.72a4.89,4.89,0,1,1,0-6.91A4.86,4.86,0,0,1,68.83,86.93ZM79.2,83.31h0a2.43,2.43,0,1,1,.71-1.72A2.44,2.44,0,0,1,79.2,83.31ZM92.45,62.11a2.86,2.86,0,0,1-3.95,0,2.79,2.79,0,1,1,3.95,0Z"/></svg>