<svg xmlns="http://www.w3.org/2000/svg" data-name="Слой 1" viewBox="0 0 128 160" x="0px" y="0px"><title>tomato</title><path fill="white" d="M62.08,128a62.52,62.52,0,0,1-7.14-.41A61.46,61.46,0,0,1,.5,61,58.79,58.79,0,0,1,21.81,20.1c13.48-11,29.54-13.7,50.54-8.41,11.29,2.84,18.33,11.54,25.79,20.75l.33.4a2,2,0,1,1-3.11,2.52L95,35C87.7,25.91,81.37,18.09,71.37,15.58c-19.67-5-34.62-2.53-47,7.62C.87,42.4-2.38,78.89,17.25,102.89s56,28,79.51,8.84c11.88-9.72,17.08-22.85,16.85-42.58-.1-9.07-4.53-16.55-11.14-25a2,2,0,1,1,3.15-2.47c7.12,9.09,11.88,17.23,12,27.42.15,13.07-1.59,32-18.32,45.72A58.37,58.37,0,0,1,62.08,128Z"/><path fill="white" d="M97,82.55a2,2,0,0,1-1.38-3.45c1.29-1.24,4.38-9.2,3.14-17.57-1.61-10.83-3-15.12-3.58-16.15-3.23-2.26-10-6.75-12.34-7.58-1.31-.47-7.81.37-13.06,1.45a2,2,0,0,1-1.62-3.54c.37-.28,9-6.87,16.2-6.88h0A29.73,29.73,0,0,1,94.43,31a73.06,73.06,0,0,0-5.91-9.77l-.07-.11C86,17.6,72.95,7.27,68.12,3.59A2,2,0,0,1,69.82.06C71.06.38,100.15,8,105.22,30.69a2,2,0,1,1-3.9.87c-2.49-11.18-12-18.39-20.06-22.64,4.47,3.71,9,7.71,10.5,10l.07.11c2.73,4,7.31,10.67,7.91,15.66a2,2,0,0,1-3.09,1.9c-1.33-.82-7.15-3.75-12.3-3.75h0a13.84,13.84,0,0,0-4.5.92,12.46,12.46,0,0,1,4.31.29,48.53,48.53,0,0,1,8.27,4.69c4.81,3.13,5.89,3.84,6.13,4.56,1.78,3.14,3.35,12.29,4.15,17.68a32.18,32.18,0,0,1,.32,5.7,23.56,23.56,0,0,0,1.75-8.29c0-.47,0-1,0-1.47.05-3.94.11-8.4-3-11.51A2,2,0,0,1,103.63,42c2.29.54,7.42,4.5,11.88,8.23-2.46-4.21-5.93-8.24-10-8.51a2,2,0,1,1,.26-4c11.23.74,17,18.62,17.21,19.38a2,2,0,0,1-3.25,2.08c-3.77-3.4-8.07-7-11.46-9.65a32.76,32.76,0,0,1,.49,7.38c0,.49,0,1,0,1.41,0,10-7.84,20.88-10.13,23.35l-.28.29h0l-.21.18A2,2,0,0,1,97,82.55Z"/><path fill="white" d="M103.17,46H103a2,2,0,0,1-1.79-2.19c.4-4,7.52-10.44,11.77-12.33,5.51-2.45,8-2.85,10.77-2.63a2.12,2.12,0,0,0-.07-.57c-4.81-1.18-7.33-.75-10.74.57a41.91,41.91,0,0,0-9.07,5,21,21,0,0,1-5.53,3A2,2,0,0,1,97.17,33a18.21,18.21,0,0,0,4.44-2.52,46,46,0,0,1,9.87-5.4c4.14-1.6,7.53-2.17,13.61-.6,2.06.53,2.93,3.13,2.55,5.24a3.51,3.51,0,0,1-3.87,3.11c-2-.2-3.76-.15-9.2,2.27-4,1.78-9.25,7.38-9.41,9.07A2,2,0,0,1,103.17,46Z"/></svg>